<?xml version="1.0" encoding="UTF-8"?><svg id="a" xmlns="http://www.w3.org/2000/svg" width="504" height="504" viewBox="0 0 504 504"><defs><style>.b{fill:none;stroke:#00ff64;stroke-linecap:round;stroke-linejoin:round;stroke-width:21px;}</style></defs><path class="b" d="m280.5,258.2l23.7,23.7-23.7,23.7,23.7,23.7-23.7,23.7v23.7l-23.7,47.4-23.7-47.4,5.1-155.9-4.5-.4c-13.2-3.8-25.7-10.9-36.1-21.3-32.7-32.7-32.7-85.7,0-118.4,32.7-32.7,85.7-32.7,118.4,0,32.7,32.7,32.7,85.7,0,118.4-10.4,10.4-22.9,17.5-36.1,21.3"/><polyline class="b" points="192.5 257.3 115.8 257.3 115.8 218.4"/><circle class="b" cx="115.8" cy="193.8" r="21.6"/><polyline class="b" points="192.5 362.8 115.8 362.8 115.8 401.8"/><circle class="b" cx="115.8" cy="426.4" r="21.6"/><line class="b" x1="192.5" y1="310.1" x2="110.8" y2="310.1"/><circle class="b" cx="87.4" cy="309.8" r="21.6"/><polyline class="b" points="340.6 257.3 417.3 257.3 417.3 178.9"/><circle class="b" cx="416.6" cy="151.2" r="21.6"/><polyline class="b" points="339.9 362.8 416.6 362.8 416.6 401.8"/><circle class="b" cx="416.6" cy="426.4" r="21.6"/><line class="b" x1="339.9" y1="310.1" x2="393.2" y2="310.1"/><circle class="b" cx="416.6" cy="309.8" r="21.6"/></svg>